<?xml version="1.0" encoding="UTF-8"?>
<svg width="25px" height="25px" viewBox="0 0 25 25" version="1.1" xmlns="http://www.w3.org/2000/svg" xmlns:xlink="http://www.w3.org/1999/xlink">
    <!-- Generator: Sketch 42 (36781) - http://www.bohemiancoding.com/sketch -->
    <title>medical-plus</title>
    <desc>Created with Sketch.</desc>
    <defs>
        <linearGradient x1="50%" y1="0%" x2="50%" y2="100%" id="linearGradient-1">
            <stop stop-color="#1AD6FD" offset="0%"></stop>
            <stop stop-color="#1D67F0" offset="100%"></stop>
        </linearGradient>
    </defs>
    <g id="Page-1" stroke="none" stroke-width="1" fill="none" fill-rule="evenodd">
        <g id="Gradient---Outline" transform="translate(-200.000000, -100.000000)" fill="url(#linearGradient-1)">
            <g id="medical-plus" transform="translate(200.000000, 100.000000)">
                <path d="M19,14.0041 L14.5,14.0041 C14.224,14.0041 14,14.2281 14,14.5041 L14,19.0041 L11,19.0041 L11,14.5041 C11,14.2281 10.776,14.0041 10.5,14.0041 L6,14.0041 L6,11.0041 L10.5,11.0041 C10.776,11.0041 11,10.7801 11,10.5041 L11,6.0041 L14,6.0041 L14,10.5041 C14,10.7801 14.224,11.0041 14.5,11.0041 L19,11.0041 L19,14.0041 Z M19.5,10.0041 L15,10.0041 L15,5.5041 C15,5.2281 14.776,5.0041 14.5,5.0041 L10.5,5.0041 C10.224,5.0041 10,5.2281 10,5.5041 L10,10.0041 L5.5,10.0041 C5.224,10.0041 5,10.2281 5,10.5041 L5,14.5041 C5,14.7801 5.224,15.0041 5.5,15.0041 L10,15.0041 L10,19.5041 C10,19.7801 10.224,20.0041 10.5,20.0041 L14.5,20.0041 C14.776,20.0041 15,19.7801 15,19.5041 L15,15.0041 L19.5,15.0041 C19.776,15.0041 20,14.7801 20,14.5041 L20,10.5041 C20,10.2281 19.776,10.0041 19.5,10.0041 L19.5,10.0041 Z M12.5,24.0041 C6.159,24.0041 1,18.8451 1,12.5041 C1,6.1631 6.159,1.0041 12.5,1.0041 C18.841,1.0041 24,6.1631 24,12.5041 C24,18.8451 18.841,24.0041 12.5,24.0041 L12.5,24.0041 Z M12.5,0.0041 C5.607,0.0041 0,5.6111 0,12.5041 C0,19.3971 5.607,25.0041 12.5,25.0041 C19.393,25.0041 25,19.3971 25,12.5041 C25,5.6111 19.393,0.0041 12.5,0.0041 L12.5,0.0041 Z" id="Fill-143"></path>
            </g>
        </g>
    </g>
</svg>