<?xml version="1.0" encoding="UTF-8"?>
<svg width="25px" height="17px" viewBox="0 0 25 17" version="1.1" xmlns="http://www.w3.org/2000/svg" xmlns:xlink="http://www.w3.org/1999/xlink">
    <!-- Generator: Sketch 42 (36781) - http://www.bohemiancoding.com/sketch -->
    <title>users-2</title>
    <desc>Created with Sketch.</desc>
    <defs>
        <linearGradient x1="50%" y1="0%" x2="50%" y2="100%" id="linearGradient-1">
            <stop stop-color="#1AD6FD" offset="0%"></stop>
            <stop stop-color="#1D67F0" offset="100%"></stop>
        </linearGradient>
    </defs>
    <g id="Page-1" stroke="none" stroke-width="1" fill="none" fill-rule="evenodd">
        <g id="Outline" transform="translate(-400.000000, -404.000000)" fill="url(#linearGradient-1)">
            <g id="users-2" transform="translate(400.000000, 404.000000)">
                <path d="M10.737,0.741 C8.876,1.863 8.145,4.282 8.781,5.535 L8.781,5.535 C9.012,5.989 8.981,6.108 8.908,6.393 L8.908,6.393 C8.858,6.59 8.789,6.86 8.789,7.25 L8.789,7.25 C8.789,7.796 9.104,8.303 9.439,8.839 L9.439,8.839 C9.801,9.418 10.175,10.017 10.175,10.677 L10.175,10.677 C10.175,11.994 9.425,12.32 8.099,12.781 L8.099,12.781 C6.719,13.263 5,13.861 5,16.5 L5,16.5 C5,16.776 5.224,17 5.5,17 L5.5,17 L19.5,17 C19.777,17 20,16.776 20,16.5 L20,16.5 C20,13.861 18.281,13.263 16.9,12.781 L16.9,12.781 C15.576,12.32 14.825,11.994 14.825,10.677 L14.825,10.677 C14.825,10.017 15.199,9.418 15.56,8.839 L15.56,8.839 C15.896,8.303 16.212,7.796 16.212,7.25 L16.212,7.25 C16.212,6.86 16.142,6.59 16.091,6.393 L16.091,6.393 C16.018,6.108 15.989,5.989 16.219,5.535 L16.219,5.535 C16.639,4.706 16.609,2.83 15.941,1.741 L15.941,1.741 C15.599,1.185 15.184,0.979 14.836,0.918 L14.836,0.918 C14.288,0.31 13.657,0.006 12.93,0.006 L12.93,0.006 C12.278,0.006 11.549,0.251 10.737,0.741 M8.429,13.725 C9.652,13.3 11.174,12.769 11.174,10.677 L11.174,10.677 C11.174,9.731 10.682,8.943 10.288,8.31 L10.288,8.31 C10.031,7.899 9.788,7.51 9.788,7.25 L9.788,7.25 C9.788,6.986 9.832,6.819 9.877,6.641 L9.877,6.641 C9.993,6.191 10.045,5.815 9.672,5.082 L9.672,5.082 C9.327,4.401 9.746,2.506 11.254,1.597 L11.254,1.597 C12.847,0.637 13.583,0.947 14.198,1.71 L14.198,1.71 C14.292,1.828 14.435,1.897 14.587,1.897 L14.587,1.897 C14.656,1.897 14.863,1.897 15.089,2.265 L15.089,2.265 C15.576,3.057 15.582,4.581 15.327,5.082 L15.327,5.082 C14.954,5.815 15.008,6.191 15.123,6.641 L15.123,6.641 C15.169,6.819 15.211,6.986 15.211,7.25 L15.211,7.25 C15.211,7.51 14.969,7.899 14.712,8.31 L14.712,8.31 C14.317,8.943 13.825,9.731 13.825,10.677 L13.825,10.677 C13.825,12.769 15.348,13.3 16.571,13.725 L16.571,13.725 C17.802,14.155 18.797,14.502 18.973,16 L18.973,16 L6.027,16 C6.202,14.502 7.198,14.155 8.429,13.725 M18.778,3.489 C17.494,4.239 17.006,5.883 17.456,6.74 L17.456,6.74 C17.567,6.956 17.561,6.98 17.52,7.136 L17.52,7.136 C17.487,7.27 17.44,7.452 17.44,7.72 L17.44,7.72 C17.44,8.119 17.668,8.475 17.888,8.818 L17.888,8.818 C18.105,9.156 18.33,9.506 18.33,9.861 L18.33,9.861 C18.33,10.471 18.067,10.671 17.326,10.928 L17.326,10.928 C17.065,11.019 16.927,11.303 17.018,11.564 L17.018,11.564 C17.109,11.825 17.392,11.962 17.654,11.873 L17.654,11.873 C18.24,11.669 19.33,11.291 19.33,9.861 L19.33,9.861 C19.33,9.212 18.997,8.694 18.73,8.279 L18.73,8.279 C18.608,8.087 18.44,7.826 18.44,7.72 L18.44,7.72 C18.44,7.578 18.463,7.488 18.489,7.385 L18.489,7.385 C18.569,7.073 18.608,6.794 18.343,6.277 L18.343,6.277 C18.159,5.927 18.435,4.848 19.284,4.351 L19.284,4.351 C20.305,3.748 20.669,4.033 20.955,4.379 L20.955,4.379 C21.05,4.493 21.191,4.56 21.34,4.56 L21.34,4.56 C21.41,4.56 21.477,4.646 21.521,4.719 L21.521,4.719 C21.785,5.155 21.798,6.009 21.656,6.281 L21.656,6.281 C21.391,6.794 21.431,7.073 21.511,7.385 L21.511,7.385 C21.537,7.488 21.56,7.578 21.56,7.72 L21.56,7.72 C21.56,7.826 21.392,8.087 21.27,8.279 L21.27,8.279 C21.003,8.694 20.669,9.212 20.669,9.861 L20.669,9.861 C20.669,11.308 21.764,11.677 22.562,11.946 L22.562,11.946 C23.327,12.205 23.797,12.394 23.947,13 L23.947,13 L20.66,13 C20.384,13 20.16,13.224 20.16,13.5 L20.16,13.5 C20.16,13.777 20.384,14 20.66,14 L20.66,14 L24.5,14 C24.776,14 25,13.777 25,13.5 L25,13.5 C25,11.714 23.776,11.301 22.883,10.999 L22.883,10.999 C22.041,10.715 21.67,10.561 21.67,9.861 L21.67,9.861 C21.67,9.506 21.894,9.156 22.111,8.818 L22.111,8.818 C22.332,8.475 22.56,8.119 22.56,7.72 L22.56,7.72 C22.56,7.452 22.514,7.27 22.479,7.136 L22.479,7.136 C22.439,6.98 22.434,6.956 22.543,6.742 L22.543,6.742 C22.87,6.118 22.79,4.884 22.377,4.201 L22.377,4.201 C22.177,3.871 21.902,3.659 21.587,3.587 L21.587,3.587 C21.211,3.198 20.773,3.004 20.278,3.004 L20.278,3.004 C19.825,3.004 19.324,3.166 18.778,3.489 M3.777,3.489 C2.494,4.239 2.006,5.883 2.455,6.74 L2.455,6.74 C2.567,6.956 2.561,6.98 2.52,7.136 L2.52,7.136 C2.487,7.27 2.44,7.452 2.44,7.72 L2.44,7.72 C2.44,8.119 2.668,8.475 2.889,8.818 L2.889,8.818 C3.105,9.156 3.33,9.506 3.33,9.861 L3.33,9.861 C3.33,10.561 2.958,10.715 2.118,10.999 L2.118,10.999 C1.224,11.301 0,11.714 0,13.5 L0,13.5 C0,13.777 0.223,14 0.5,14 L0.5,14 L4.34,14 C4.616,14 4.839,13.777 4.839,13.5 L4.839,13.5 C4.839,13.224 4.616,13 4.34,13 L4.34,13 L1.053,13 C1.203,12.394 1.672,12.205 2.437,11.946 L2.437,11.946 C3.236,11.677 4.33,11.308 4.33,9.861 L4.33,9.861 C4.33,9.212 3.998,8.694 3.73,8.279 L3.73,8.279 C3.608,8.087 3.44,7.826 3.44,7.72 L3.44,7.72 C3.44,7.578 3.463,7.488 3.489,7.385 L3.489,7.385 C3.569,7.073 3.609,6.794 3.343,6.277 L3.343,6.277 C3.158,5.927 3.435,4.848 4.284,4.351 L4.284,4.351 C5.306,3.748 5.669,4.033 5.954,4.379 L5.954,4.379 C6.05,4.493 6.191,4.56 6.34,4.56 L6.34,4.56 C6.467,4.56 6.566,4.791 6.599,4.873 L6.599,4.873 C6.695,5.102 6.75,5.411 6.75,5.731 L6.75,5.731 C6.75,6.01 6.703,6.194 6.656,6.281 L6.656,6.281 C6.391,6.794 6.431,7.073 6.511,7.385 L6.511,7.385 C6.537,7.488 6.56,7.578 6.56,7.72 L6.56,7.72 C6.56,7.826 6.392,8.087 6.27,8.279 L6.27,8.279 C6.002,8.694 5.67,9.212 5.67,9.861 L5.67,9.861 C5.67,11.291 6.76,11.669 7.346,11.873 L7.346,11.873 C7.606,11.962 7.891,11.824 7.982,11.564 L7.982,11.564 C8.073,11.303 7.934,11.019 7.673,10.928 L7.673,10.928 C6.933,10.671 6.67,10.471 6.67,9.861 L6.67,9.861 C6.67,9.506 6.894,9.156 7.111,8.818 L7.111,8.818 C7.332,8.475 7.56,8.119 7.56,7.72 L7.56,7.72 C7.56,7.452 7.513,7.27 7.479,7.136 L7.479,7.136 C7.439,6.98 7.433,6.956 7.537,6.753 L7.537,6.753 C7.713,6.436 7.75,6.022 7.75,5.72 L7.75,5.72 C7.75,5.277 7.669,4.839 7.526,4.498 L7.526,4.498 C7.331,3.999 6.997,3.678 6.587,3.586 L6.587,3.586 C6.21,3.198 5.773,3.005 5.277,3.005 L5.277,3.005 C4.825,3.005 4.324,3.166 3.777,3.489" id="Fill-40"></path>
            </g>
        </g>
    </g>
</svg>