<?xml version="1.0" encoding="UTF-8"?>
<svg width="25px" height="25px" viewBox="0 0 25 25" version="1.1" xmlns="http://www.w3.org/2000/svg" xmlns:xlink="http://www.w3.org/1999/xlink">
    <!-- Generator: Sketch 42 (36781) - http://www.bohemiancoding.com/sketch -->
    <title>user-female</title>
    <desc>Created with Sketch.</desc>
    <defs>
        <linearGradient x1="50%" y1="0%" x2="50%" y2="100%" id="linearGradient-1">
            <stop stop-color="#1AD6FD" offset="0%"></stop>
            <stop stop-color="#1D67F0" offset="100%"></stop>
        </linearGradient>
    </defs>
    <g id="Page-1" stroke="none" stroke-width="1" fill="none" fill-rule="evenodd">
        <g id="Outline" transform="translate(-350.000000, -400.000000)" fill="url(#linearGradient-1)">
            <g id="user-female" transform="translate(350.000000, 399.000000)">
                <path d="M0,13.499 C0,17.385 1.783,20.861 4.573,23.156 L4.573,23.156 C4.585,23.169 4.591,23.187 4.605,23.198 L4.605,23.198 C5.853,24.212 7.25,24.951 8.737,25.418 L8.737,25.418 C8.774,25.429 8.811,25.44 8.848,25.451 L8.848,25.451 C9.182,25.554 9.522,25.641 9.866,25.714 L9.866,25.714 C9.933,25.728 9.998,25.744 10.065,25.757 L10.065,25.757 C10.392,25.821 10.721,25.871 11.055,25.908 L11.055,25.908 C11.131,25.917 11.205,25.93 11.281,25.938 L11.281,25.938 C11.684,25.976 12.089,26 12.5,26 L12.5,26 C12.91,26 13.316,25.976 13.718,25.938 L13.718,25.938 C13.795,25.93 13.869,25.917 13.945,25.908 L13.945,25.908 C14.278,25.871 14.608,25.821 14.935,25.757 L14.935,25.757 C15.002,25.744 15.068,25.728 15.134,25.714 L15.134,25.714 C15.478,25.641 15.817,25.554 16.153,25.451 L16.153,25.451 C16.19,25.44 16.226,25.429 16.263,25.418 L16.263,25.418 C17.75,24.951 19.146,24.212 20.395,23.198 L20.395,23.198 C20.409,23.187 20.414,23.169 20.427,23.156 L20.427,23.156 C23.217,20.861 25,17.385 25,13.499 L25,13.499 C25,6.607 19.393,0.999 12.5,0.999 L12.5,0.999 C5.608,0.999 0,6.607 0,13.499 M1,13.499 C1,7.158 6.158,1.999 12.5,1.999 L12.5,1.999 C18.841,1.999 24,7.158 24,13.499 L24,13.499 C24,16.981 22.439,20.1 19.985,22.211 L19.985,22.211 C19.473,21.956 18.939,21.75 18.412,21.564 L18.412,21.564 C16.867,21.018 15.627,20.58 15.492,18.821 L15.492,18.821 C17.955,18.532 19.585,17.998 19.658,17.975 L19.658,17.975 C19.81,17.923 19.927,17.803 19.976,17.651 L19.976,17.651 C20.025,17.497 19.996,17.33 19.9,17.202 L19.9,17.202 C19.887,17.183 18.5,15.271 18.5,12 L18.5,12 C18.5,6.99 16.256,4 12.5,4 L12.5,4 C8.743,4 6.5,6.99 6.5,12 L6.5,12 C6.5,15.271 5.113,17.183 5.099,17.202 L5.099,17.202 C5.004,17.33 4.976,17.497 5.023,17.651 L5.023,17.651 C5.072,17.803 5.19,17.923 5.343,17.975 L5.343,17.975 C5.414,17.998 7.046,18.532 9.508,18.821 L9.508,18.821 C9.373,20.58 8.133,21.018 6.588,21.564 L6.588,21.564 C6.061,21.75 5.527,21.956 5.014,22.211 L5.014,22.211 C2.561,20.1 1,16.981 1,13.499 M11.404,24.943 C11.335,24.937 11.267,24.928 11.199,24.92 L11.199,24.92 C10.881,24.884 10.565,24.837 10.254,24.775 L10.254,24.775 C10.217,24.769 10.18,24.762 10.143,24.753 L10.143,24.753 C8.585,24.428 7.147,23.781 5.889,22.893 L5.889,22.893 C6.226,22.753 6.576,22.628 6.921,22.507 L6.921,22.507 C8.608,21.91 10.52,21.235 10.52,18.49 L10.52,18.49 C10.52,18.449 10.516,18.408 10.51,18.354 L10.51,18.354 C10.501,18.104 10.308,17.899 10.06,17.875 L10.06,17.875 C8.362,17.705 7.008,17.397 6.271,17.202 L6.271,17.202 C6.743,16.332 7.5,14.545 7.5,12 L7.5,12 C7.5,9.895 7.987,5 12.5,5 L12.5,5 C17.012,5 17.5,9.895 17.5,12 L17.5,12 C17.5,14.545 18.256,16.332 18.73,17.202 L18.73,17.202 C17.992,17.397 16.639,17.705 14.94,17.875 L14.94,17.875 C14.706,17.897 14.516,18.135 14.488,18.368 L14.488,18.368 C14.486,18.387 14.48,18.471 14.48,18.49 L14.48,18.49 C14.48,21.235 16.392,21.91 18.08,22.507 L18.08,22.507 C18.424,22.628 18.775,22.753 19.111,22.893 L19.111,22.893 C17.853,23.781 16.415,24.428 14.858,24.753 L14.858,24.753 C14.82,24.762 14.783,24.769 14.745,24.775 L14.745,24.775 C14.435,24.837 14.12,24.884 13.801,24.92 L13.801,24.92 C13.733,24.928 13.665,24.937 13.596,24.943 L13.596,24.943 C13.235,24.978 12.87,24.999 12.5,24.999 L12.5,24.999 C12.13,24.999 11.764,24.978 11.404,24.943" id="Fill-37"></path>
            </g>
        </g>
    </g>
</svg>